<svg xmlns="http://www.w3.org/2000/svg" width="149.215" height="15.954" viewBox="0 0 149.215 15.954">
  <g id="Social_Icons" data-name="Social Icons" transform="translate(-887.694 -2937.253)">
    <path id="Youtube" d="M1024.8,2951.747a2.708,2.708,0,0,1-2.708-2.705v-2.177a2.709,2.709,0,0,1,2.708-2.708h9.406a2.707,2.707,0,0,1,2.7,2.708v2.177a2.706,2.706,0,0,1-2.7,2.705Zm7.878-5.088a1.062,1.062,0,0,0-.318.8v1.686a1.182,1.182,0,0,0,.289.847,1.02,1.02,0,0,0,.793.311,1.114,1.114,0,0,0,.841-.29,1.2,1.2,0,0,0,.283-.868v-.194h-.77v.172a.77.77,0,0,1-.076.426.3.3,0,0,1-.259.1.289.289,0,0,1-.256-.115.813.813,0,0,1-.071-.41v-.707h1.432v-.957a1.117,1.117,0,0,0-.275-.816,1.047,1.047,0,0,0-.793-.285A1.132,1.132,0,0,0,1032.676,2946.659Zm-5.574,2.922a.791.791,0,0,0,.134.5.46.46,0,0,0,.39.167.932.932,0,0,0,.437-.119,1.625,1.625,0,0,0,.431-.345v.41h.751v-3.752h-.751v2.849a1,1,0,0,1-.232.2.425.425,0,0,1-.209.077.183.183,0,0,1-.154-.062.312.312,0,0,1-.048-.192v-2.876h-.75Zm3.785.582a.9.9,0,0,0,.392.08.616.616,0,0,0,.508-.211.938.938,0,0,0,.175-.611v-2.08a1.12,1.12,0,0,0-.185-.7.651.651,0,0,0-.545-.24.742.742,0,0,0-.346.09,1.118,1.118,0,0,0-.32.259v-1.636h-.76v5.084h.76v-.29A.948.948,0,0,0,1030.888,2950.163Zm-6.7-4.311h.874v4.344h.843v-4.344h.874v-.74h-2.591Zm6.56,3.764a.61.61,0,0,1-.176-.132v-2.338a.543.543,0,0,1,.154-.115.378.378,0,0,1,.158-.035.292.292,0,0,1,.233.1.446.446,0,0,1,.078.29v1.937a.422.422,0,0,1-.064.258.243.243,0,0,1-.2.078A.413.413,0,0,1,1030.743,2949.616Zm2.389-1.789v-.379a.543.543,0,0,1,.077-.336.3.3,0,0,1,.256-.1.292.292,0,0,1,.251.1.548.548,0,0,1,.078.336v.379Zm-4.644-5.18a1.094,1.094,0,0,1-.332-.839v-2.141a.943.943,0,0,1,.339-.763,1.391,1.391,0,0,1,.916-.285,1.242,1.242,0,0,1,.86.3,1,1,0,0,1,.333.774v2.132a1.086,1.086,0,0,1-.326.833,1.3,1.3,0,0,1-.906.3A1.245,1.245,0,0,1,1028.488,2942.646Zm.631-3.229a.286.286,0,0,0-.1.219v2.252a.364.364,0,0,0,.09.262.339.339,0,0,0,.257.092.388.388,0,0,0,.273-.092.344.344,0,0,0,.1-.262v-2.252a.273.273,0,0,0-.1-.219.41.41,0,0,0-.271-.082A.367.367,0,0,0,1029.119,2939.417Zm2.319,3.31a.86.86,0,0,1-.148-.552v-3.451h.841v3.166a.335.335,0,0,0,.055.212.2.2,0,0,0,.172.068.487.487,0,0,0,.235-.088,1.09,1.09,0,0,0,.259-.221v-3.136h.845v4.13h-.845v-.457a1.8,1.8,0,0,1-.484.388,1.072,1.072,0,0,1-.489.13A.533.533,0,0,1,1031.438,2942.727Zm-5.408.126v-2.218l-1.131-3.383h.957l.617,2.24h.061l.588-2.24h.967l-1.107,3.278v2.323Z" fill="#c2cfd7"/>
    <path id="Google_" data-name="Google " d="M990.043,2951.042a3.552,3.552,0,0,1-2.319-1.5,1.9,1.9,0,0,1-.249-.945,2.348,2.348,0,0,1,.239-1.012,4.355,4.355,0,0,1,4-2.175h.051a1.578,1.578,0,0,1-.214-.8,1.666,1.666,0,0,1,.054-.419,3.21,3.21,0,0,1-3.263-3.215,3.428,3.428,0,0,1,2.471-3.013,3.977,3.977,0,0,1,1.318-.229h3.992a.315.315,0,0,1,.3.219.312.312,0,0,1-.114.349l-.894.65a.326.326,0,0,1-.185.058h-.32a3.1,3.1,0,0,1,.656,1.993,2.984,2.984,0,0,1-1.247,2.334c-.624.483-.647.615-.647.893a2.661,2.661,0,0,0,.919.986,3.088,3.088,0,0,1,1.528,2.849,3.254,3.254,0,0,1-2.606,2.971,5.81,5.81,0,0,1-1.632.221A7.4,7.4,0,0,1,990.043,2951.042Zm-.5-2.867a2.1,2.1,0,0,0,2.324,1.821c1.72,0,2.591-.593,2.591-1.761a1.441,1.441,0,0,0-.04-.34c-.116-.455-.532-.738-1.16-1.166l-.271-.186a3.1,3.1,0,0,0-.856-.13h-.038C990.734,2946.411,989.543,2947.235,989.543,2948.174Zm1.236-8.87a2.064,2.064,0,0,0-.383,1.628c.157,1.183,1.019,2.2,1.882,2.231h.016a1.05,1.05,0,0,0,.813-.371,2.148,2.148,0,0,0,.393-1.666,2.362,2.362,0,0,0-1.882-2.193h-.035A1.047,1.047,0,0,0,990.779,2939.3Zm8.2,7.783a.311.311,0,0,1-.313-.311V2944.5H996.4a.316.316,0,0,1-.316-.315v-.646a.317.317,0,0,1,.316-.314h2.269v-2.268a.313.313,0,0,1,.313-.314h.647a.314.314,0,0,1,.314.314v2.268h2.27a.315.315,0,0,1,.313.314v.646a.315.315,0,0,1-.313.315h-2.27v2.271a.312.312,0,0,1-.314.311Z" fill="#c2cfd7"/>
    <path id="Dribble" d="M965.1,2944.234a7.445,7.445,0,0,0-.436-1.4,7.5,7.5,0,0,0-1.6-2.373,7.558,7.558,0,0,0-1.1-.912,7.468,7.468,0,0,0-9.459.912,7.613,7.613,0,0,0-.911,1.1,7.344,7.344,0,0,0-.688,1.27,7.418,7.418,0,0,0-.437,1.4,7.543,7.543,0,0,0,0,3.008,7.488,7.488,0,0,0,1.125,2.674,7.626,7.626,0,0,0,.911,1.1,7.626,7.626,0,0,0,2.375,1.6,7.419,7.419,0,0,0,1.4.433,7.455,7.455,0,0,0,3.008,0,7.4,7.4,0,0,0,1.4-.433,7.6,7.6,0,0,0,2.374-1.6,7.443,7.443,0,0,0,2.035-3.778,7.545,7.545,0,0,0,0-3.008Zm-.94,1.439a14.9,14.9,0,0,0-4.442-.207c-.045-.11-.091-.221-.138-.33-.133-.312-.276-.621-.424-.924a8.228,8.228,0,0,0,3.554-2.525A6.36,6.36,0,0,1,964.156,2945.674Zm-2.163-4.721a6.965,6.965,0,0,1-3.333,2.309,32.076,32.076,0,0,0-2.384-3.72,6.373,6.373,0,0,1,5.716,1.412Zm-5.741-1.408v0l-.02,0A.068.068,0,0,0,956.252,2939.544Zm-1.193.426a38.463,38.463,0,0,1,2.367,3.676,23.66,23.66,0,0,1-5.889.777A6.39,6.39,0,0,1,955.059,2939.97Zm-3.658,5.767c0-.068,0-.135,0-.2a23.386,23.386,0,0,0,6.549-.908c.183.357.359.721.519,1.084-.085.023-.168.049-.252.076a10.077,10.077,0,0,0-5.187,4.209v0A6.364,6.364,0,0,1,951.4,2945.738Zm6.379,6.379a6.357,6.357,0,0,1-4.064-1.461c.083.068.143.111.143.111a8.65,8.65,0,0,1,5.006-3.986.367.367,0,0,1,.041-.012,26.279,26.279,0,0,1,1.362,4.844A6.352,6.352,0,0,1,957.78,2952.117Zm3.563-1.09a27.681,27.681,0,0,0-1.241-4.556,9.276,9.276,0,0,1,3.976.28A6.37,6.37,0,0,1,961.344,2951.027Z" fill="#c2cfd7"/>
    <path id="Tweeter" d="M933.739,2941.553a6.032,6.032,0,0,1-1.753.479,3.058,3.058,0,0,0,1.342-1.689,6.129,6.129,0,0,1-1.939.744,3.053,3.053,0,0,0-5.283,2.088,3.113,3.113,0,0,0,.08.7,8.653,8.653,0,0,1-6.294-3.192,3.059,3.059,0,0,0,.945,4.079,3.042,3.042,0,0,1-1.384-.383v.039a3.057,3.057,0,0,0,2.45,2.994,3.04,3.04,0,0,1-.806.107,2.943,2.943,0,0,1-.573-.056,3.056,3.056,0,0,0,2.851,2.123,6.128,6.128,0,0,1-3.791,1.306,6.465,6.465,0,0,1-.73-.042,8.686,8.686,0,0,0,13.37-7.316c0-.131,0-.264-.01-.395A6.226,6.226,0,0,0,933.739,2941.553Z" fill="#c2cfd7"/>
    <path id="Facebook" d="M894.475,2942.958h-2.309v-1.513a.617.617,0,0,1,.643-.7h1.629v-2.5l-2.246-.008a2.842,2.842,0,0,0-3.058,3.058v1.666h-1.44v2.578h1.44v7.291h3.032v-7.291h2.045Z" fill="#c2cfd7"/>
  </g>
</svg>
